PathFileType   4   (X/Y/Z)
DataRate	CameraRate	NumFrames	NumMarkers	Units	OrigDataRate	OrigDataStartFrame	OrigNumFrames
120.0	120.0	9	37	mm	120.0	42	164
Frame#	Time	midhip	hip_r	hip_l	knee_r	knee_l	ankle_r	ankle_l	midasis	asis_r	asis_l	psis_r	psis_l	epicondLat_r	epicondLat_l	epicondMed_r	epicondMed_l	malleolusLat_r	malleolusLat_l	malleolusMedv_r	malleolusMedv_l	neck	subclavicle_r	subclavicle_l	sternalnotch	xyphoidprocess	thighwand_r	thighwand_l	upperleg1_r	upperleg1_l	upperleg2_r	upperleg2_l	shankwand_r	shankwand_l	lowerleg1_r	lowerleg1_l	toe_r	toe_l
 	 	X1	Y1	Z1	X2	Y2	Z2	X3	Y3	Z3	X4	Y4	Z4	X5	Y5	Z5	X6	Y6	Z6	X7	Y7	Z7	X8	Y8	Z8	X9	Y9	Z9	X10	Y10	Z10	X11	Y11	Z11	X12	Y12	Z12	X13	Y13	Z13	X14	Y14	Z14	X15	Y15	Z15	X16	Y16	Z16	X17	Y17	Z17	X18	Y18	Z18	X19	Y19	Z19	X20	Y20	Z20	X21	Y21	Z21	X22	Y22	Z22	X23	Y23	Z23	X24	Y24	Z24	X25	Y25	Z25	X26	Y26	Z26	X27	Y27	Z27	X28	Y28	Z28	X29	Y29	Z29	X30	Y30	Z30	X31	Y31	Z31	X32	Y32	Z32	X33	Y33	Z33	X34	Y34	Z34	X35	Y35	Z35	X36	Y36	Z36	X37	Y37	Z37

	42	0.65000	879.258	740.396	-284.793	867.749	733.612	-217.333	862.528	740.125	-347.381	1017.697	420.835	-199.691	809.631	427.905	-326.973	1011.097	82.735	-189.761	782.687	69.624	-307.393	937.032	804.128	-281.875	941.069	799.092	-181.310	932.994	809.164	-382.440	781.709	844.737	-239.040	777.681	848.512	-293.389	1015.047	422.662	-144.785	803.288	425.446	-381.047	1035.198	418.334	-237.855	807.960	409.082	-283.939	997.398	84.027	-154.877	774.264	68.290	-343.396	1018.084	86.798	-213.081	782.581	69.397	-277.039	814.822	1214.374	-280.824	919.417	1152.517	-235.793	923.398	1155.915	-312.166	906.764	1153.403	-276.178	932.953	1070.498	-276.091	1057.413	581.929	-89.695	978.016	526.957	-358.232	969.470	592.012	-130.283	915.317	595.086	-388.271	1007.975	516.198	-137.616	889.071	511.492	-380.341	973.144	198.487	-83.482	796.915	186.981	-425.915	988.587	161.545	-156.350	778.285	152.711	-351.685	1097.813	54.296	-154.475	882.584	36.495	-322.622
	43	0.65833	883.474	740.207	-284.664	872.252	733.297	-217.208	866.884	739.841	-347.248	1022.917	420.556	-200.371	812.891	427.707	-326.524	1028.708	81.411	-189.058	782.912	69.553	-307.274	941.427	803.865	-281.808	945.577	798.806	-181.259	937.276	808.925	-382.356	786.018	844.394	-238.352	781.753	848.234	-292.714	1020.266	422.234	-145.460	806.257	425.267	-380.563	1040.128	418.543	-238.507	811.838	409.482	-282.728	1014.866	82.336	-154.218	774.426	68.329	-343.267	1035.697	85.753	-212.423	782.865	69.301	-276.909	819.121	1214.108	-280.182	923.816	1152.099	-235.699	928.278	1155.623	-311.944	911.418	1153.046	-276.114	937.639	1070.152	-275.999	1061.983	581.880	-90.111	981.255	526.485	-358.647	973.949	591.891	-130.571	918.465	594.811	-389.006	1012.729	516.098	-138.080	892.371	511.234	-380.297	986.203	196.389	-83.339	797.971	186.877	-425.696	1002.988	160.177	-155.641	779.119	152.671	-351.462	1116.640	55.600	-153.672	882.619	36.444	-322.784
	44	0.66667	887.747	739.956	-284.681	876.893	732.986	-217.053	871.357	739.547	-347.085	1027.957	420.169	-201.053	816.246	427.482	-326.056	1046.135	80.507	-188.149	783.176	69.498	-307.126	945.933	803.618	-281.728	950.213	798.546	-181.203	941.653	808.690	-382.252	790.523	844.024	-237.597	785.897	847.921	-292.001	1025.349	421.718	-146.136	809.320	425.066	-380.060	1043.725	418.209	-239.116	815.470	409.589	-282.151	1032.150	81.080	-153.359	774.629	68.385	-343.108	1053.038	85.073	-211.547	783.170	69.209	-276.763	823.452	1213.822	-279.522	928.254	1151.683	-235.472	933.859	1155.354	-311.819	916.465	1152.685	-276.158	942.809	1069.831	-275.792	1066.562	581.732	-90.658	984.608	526.008	-359.037	978.451	591.698	-130.836	921.828	594.559	-389.307	1017.003	515.783	-138.537	895.690	511.042	-380.297	999.074	194.564	-83.062	799.082	186.779	-425.455	1017.474	158.812	-155.322	780.163	152.657	-351.141	1135.098	57.364	-152.620	882.656	36.425	-322.889
	45	0.67500	892.048	739.619	-284.694	881.534	732.673	-216.861	875.760	739.246	-346.883	1032.811	419.659	-201.715	819.700	427.234	-325.570	1063.131	80.005	-187.083	783.476	69.458	-306.954	950.411	803.359	-281.651	954.874	798.278	-181.139	945.947	808.440	-382.164	795.160	843.638	-236.784	790.118	847.569	-291.245	1030.310	421.108	-146.791	812.477	424.845	-379.536	1052.732	419.639	-239.763	819.142	409.168	-281.844	1049.061	80.246	-152.323	774.867	68.458	-342.924	1070.017	84.740	-210.465	783.443	69.137	-276.574	827.822	1213.556	-278.797	932.844	1151.357	-235.126	936.744	1154.893	-311.685	920.147	1152.330	-275.586	946.253	1069.399	-275.676	1071.169	581.475	-91.330	988.066	525.525	-359.432	982.808	591.423	-131.086	925.343	594.110	-389.115	1023.516	515.916	-138.978	899.072	510.717	-380.182	1011.795	193.007	-82.642	800.246	186.684	-425.192	1031.772	157.624	-154.921	781.200	152.633	-350.784	1153.139	59.568	-151.459	882.690	36.433	-322.941
	46	0.68333	896.452	739.269	-284.579	886.380	732.343	-216.526	880.107	738.907	-346.525	1037.503	419.033	-202.328	823.275	426.929	-325.067	1079.810	79.907	-185.893	783.805	69.417	-306.763	954.946	803.088	-281.579	959.796	798.014	-181.076	950.096	808.163	-382.083	799.864	843.236	-235.925	794.419	847.170	-290.444	1035.177	420.400	-147.394	815.735	424.594	-378.992	1046.885	416.228	-240.259	823.154	408.792	-281.235	1065.712	79.832	-151.143	775.131	68.534	-342.721	1086.563	84.695	-209.281	783.635	69.089	-276.344	832.238	1213.255	-278.022	937.503	1151.020	-234.739	941.115	1154.621	-311.044	924.654	1152.022	-275.021	950.795	1069.102	-275.286	1075.842	581.091	-92.136	991.638	525.018	-359.833	987.132	591.033	-131.416	928.852	593.546	-389.061	1023.773	514.848	-139.503	902.626	510.424	-380.031	1024.439	191.712	-82.066	801.459	186.591	-424.913	1045.790	156.674	-154.201	782.121	152.718	-350.522	1170.712	62.115	-150.282	882.723	36.444	-322.972
	47	0.69167	900.949	738.871	-284.423	891.456	731.999	-216.006	884.357	738.506	-345.966	1042.046	418.276	-202.858	826.970	426.555	-324.553	1095.888	80.045	-184.611	784.155	69.372	-306.564	959.528	802.800	-281.516	965.018	797.769	-181.027	954.039	807.832	-382.006	804.671	842.798	-235.047	798.808	846.715	-289.604	1039.999	419.597	-147.912	819.097	424.305	-378.435	1057.492	418.064	-241.430	827.240	408.415	-280.750	1081.897	79.694	-149.821	775.415	68.609	-342.509	1102.516	84.887	-208.039	783.859	69.036	-276.135	836.727	1212.850	-277.240	942.150	1150.640	-234.398	944.663	1154.064	-310.423	928.721	1151.576	-274.328	954.706	1068.609	-274.797	1080.683	580.547	-93.126	995.336	524.466	-360.224	991.462	590.554	-131.810	932.491	593.051	-389.093	1031.000	514.959	-140.263	906.283	510.063	-379.954	1037.078	190.671	-81.317	802.722	186.495	-424.622	1059.586	155.939	-153.392	783.049	152.908	-350.313	1187.750	64.903	-149.219	882.757	36.458	-322.974
	48	0.70000	905.775	738.630	-284.431	896.536	731.601	-215.515	888.669	738.087	-345.431	1046.543	417.381	-203.281	830.750	426.151	-324.046	1111.575	80.475	-183.305	784.507	69.318	-306.371	964.146	802.470	-281.429	970.231	797.454	-180.959	958.062	807.486	-381.899	809.664	842.299	-234.184	803.295	846.195	-288.731	1044.822	418.699	-148.324	822.553	423.982	-377.882	1061.001	417.044	-241.746	831.333	407.878	-280.374	1097.792	79.882	-148.435	775.705	68.679	-342.303	1117.908	85.325	-206.828	784.155	68.979	-275.949	841.292	1212.334	-276.407	946.767	1150.219	-233.932	947.821	1153.533	-310.010	932.573	1151.130	-273.604	958.361	1068.104	-274.455	1085.618	579.853	-94.205	999.142	523.870	-360.609	995.761	590.044	-132.212	936.267	592.664	-388.937	1035.379	514.184	-140.738	909.922	509.541	-379.813	1049.755	189.886	-80.376	804.027	186.386	-424.322	1072.981	155.454	-152.200	784.043	153.011	-350.029	1204.172	67.847	-148.388	882.793	36.475	-322.956
	49	0.70833	911.019	738.631	-284.626	901.769	731.173	-214.987	893.057	737.629	-344.851	1051.039	416.371	-203.590	834.626	425.701	-323.552	1126.689	81.123	-182.015	784.840	69.248	-306.195	968.857	802.123	-281.345	975.594	797.131	-180.923	962.121	807.116	-381.767	814.849	841.735	-233.335	807.882	845.607	-287.827	1049.683	417.718	-148.623	826.100	423.626	-377.341	1064.446	416.331	-242.411	835.418	406.822	-280.392	1113.252	80.343	-147.013	775.984	68.735	-342.116	1132.617	85.920	-205.665	784.486	68.913	-275.780	845.895	1211.775	-275.491	951.305	1149.631	-233.111	953.213	1153.387	-309.726	937.559	1150.733	-273.220	963.581	1067.782	-274.230	1090.672	579.008	-95.353	1003.013	523.241	-361.001	1000.336	589.421	-132.561	940.025	592.201	-388.273	1039.725	513.734	-141.307	913.518	509.061	-379.612	1062.487	189.369	-79.248	805.367	186.260	-424.015	1086.030	155.085	-150.841	785.160	153.001	-349.678	1219.967	70.894	-147.858	882.837	36.474	-322.953
	50	0.71667	916.281	738.505	-284.881	906.847	730.698	-214.497	897.394	737.150	-344.309	1055.549	415.247	-203.785	838.606	425.222	-323.064	1141.125	81.921	-180.783	785.161	69.175	-306.041	973.486	801.720	-281.230	980.795	796.732	-180.856	966.177	806.709	-381.605	820.172	841.106	-232.478	812.567	844.951	-286.880	1054.619	416.675	-148.811	829.751	423.230	-376.803	1066.930	414.469	-242.510	839.828	405.702	-280.402	1128.190	81.028	-145.596	776.250	68.796	-341.950	1146.625	86.579	-204.580	784.844	68.821	-275.641	850.530	1211.264	-274.526	956.334	1149.039	-232.847	960.290	1152.856	-308.966	943.670	1150.114	-273.108	970.045	1067.269	-273.480	1095.865	578.024	-96.586	1006.938	522.586	-361.410	1005.048	588.700	-132.834	943.847	591.616	-387.825	1044.074	512.385	-141.674	917.371	508.542	-379.508	1075.262	189.128	-77.958	806.728	186.122	-423.715	1098.888	154.847	-149.577	786.355	152.973	-349.366	1235.128	73.984	-147.676	882.896	36.457	-322.946
